<?xml version="1.0" encoding="UTF-8" standalone="no"?>
<svg
   xmlns:dc="http://purl.org/dc/elements/1.1/"
   xmlns:cc="http://creativecommons.org/ns#"
   xmlns:rdf="http://www.w3.org/1999/02/22-rdf-syntax-ns#"
   xmlns:svg="http://www.w3.org/2000/svg"
   xmlns="http://www.w3.org/2000/svg"
   xmlns:sodipodi="http://sodipodi.sourceforge.net/DTD/sodipodi-0.dtd"
   xmlns:inkscape="http://www.inkscape.org/namespaces/inkscape"
   width="56"
   height="41.70974"
   viewBox="0 0 14.816666 11.035702"
   version="1.1"
   id="svg8"
   sodipodi:docname="rain.svg"
   inkscape:version="1.0.2 (e86c870879, 2021-01-15, custom)">
  <defs
     id="defs2" />
  <sodipodi:namedview
     id="base"
     pagecolor="#ffffff"
     bordercolor="#666666"
     borderopacity="1.0"
     inkscape:pageopacity="0.0"
     inkscape:pageshadow="2"
     inkscape:zoom="16"
     inkscape:cx="30.081121"
     inkscape:cy="24.578156"
     inkscape:document-units="px"
     inkscape:current-layer="layer1"
     inkscape:document-rotation="0"
     showgrid="true"
     units="px"
     inkscape:window-width="1892"
     inkscape:window-height="1028"
     inkscape:window-x="12"
     inkscape:window-y="36"
     inkscape:window-maximized="0"
     inkscape:snap-nodes="true"
     objecttolerance="10000"
     inkscape:snap-path-clip="true"
     inkscape:snap-path-mask="true"
     guidetolerance="10000"
     inkscape:snap-perpendicular="true"
     inkscape:snap-tangential="true"
     inkscape:snap-bbox="true"
     inkscape:bbox-paths="true"
     inkscape:bbox-nodes="true"
     inkscape:snap-bbox-midpoints="true"
     inkscape:object-paths="true"
     inkscape:snap-intersection-paths="true"
     inkscape:snap-smooth-nodes="true"
     inkscape:snap-center="true"
     inkscape:snap-object-midpoints="true"
     inkscape:snap-bbox-edge-midpoints="true"
     inkscape:snap-text-baseline="true"
     inkscape:snap-midpoints="true"
     fit-margin-top="0"
     fit-margin-left="0"
     fit-margin-right="0"
     fit-margin-bottom="0">
    <inkscape:grid
       type="xygrid"
       id="grid833"
       dotted="false"
       originx="-23.415624"
       originy="-15.025756" />
  </sodipodi:namedview>
  <metadata
     id="metadata5">
    <rdf:RDF>
      <cc:Work
         rdf:about="">
        <dc:format>image/svg+xml</dc:format>
        <dc:type
           rdf:resource="http://purl.org/dc/dcmitype/StillImage" />
        <dc:title></dc:title>
      </cc:Work>
    </rdf:RDF>
  </metadata>
  <g
     inkscape:label="Layer 1"
     inkscape:groupmode="layer"
     id="layer1"
     transform="translate(-23.415624,-15.025756)">
    <g
       id="g873"
       transform="translate(19.579166,12.7)">
      <path
         style="fill:none;stroke:#000000;stroke-width:0.264583;stroke-linecap:round;stroke-linejoin:miter;stroke-miterlimit:4;stroke-dasharray:none;stroke-opacity:1;paint-order:normal"
         d="M 3.9687499,13.229166 V 2.6458333 c 0,0 3.96875,-1.0583333 3.96875,1.8520833 0,2.6458333 -3.96875,3.4395833 -3.96875,3.4395833 3.96875,-0.79375 3.175,0.79375 3.175,3.9687501 0,0.264583 0,0.79375 0.79375,0.79375 1.0583333,0 1.3229165,-0.79375 1.3229165,-2.116667 V 6.6145832 c 0,-2.1166666 -0.07156,-3.9687499 1.3229166,-3.9687499 1.394477,0 1.322917,1.8520833 1.322917,3.9687499 v 3.9687498 c 0,1.058334 0.226308,2.116667 1.058333,2.116667 1.322917,0 1.322917,-1.322917 1.322917,-1.852083 V 8.9958332 c 0,-5.0270833 -10e-7,-6.0854166 -0.264584,-6.0854166 -0.264583,0 -0.264582,1.0583333 -0.264582,6.0854166 v 1.8520838 c 0,0.529166 -10e-7,1.852083 1.058332,1.852083 C 15.875,12.7 15.875,11.90625 15.875,10.583333 V 5.2916666 c 0,-1.3229167 0.336873,-2.6458333 1.322916,-2.6458333 0.986044,0 1.322917,1.3229166 1.322917,2.6458333 0,0 0,3.5277776 0,5.2916664 0,0.881944 0,2.645833 0,2.645833"
         id="path861"
         sodipodi:nodetypes="ccscssssasssssssssssassc" />
      <path
         style="fill:none;stroke:#000000;stroke-width:0.264583;stroke-linecap:butt;stroke-linejoin:miter;stroke-miterlimit:4;stroke-dasharray:none;stroke-opacity:1"
         d="m 9.2604165,8.0697916 c 1.3229165,-1e-7 1.3229165,-1.3229167 2.6458335,-1.3229167"
         id="path844"
         sodipodi:nodetypes="cc" />
    </g>
  </g>
</svg>
